<svg width="193" height="56" viewBox="0 0 193 56" fill="none" xmlns="http://www.w3.org/2000/svg">
<path d="M22.272 27.568C22.272 27.904 22.136 28.072 21.864 28.072C21.288 28.072 20.712 28.064 20.136 28.048C19.576 28.032 19.016 28.024 18.456 28.024C17.912 28.024 17.368 28.032 16.824 28.048C16.28 28.08 15.736 28.096 15.192 28.096C15.032 28.096 14.92 28.048 14.856 27.952C14.792 27.84 14.76 27.72 14.76 27.592C14.76 27.464 14.808 27.368 14.904 27.304C15.016 27.224 15.128 27.184 15.24 27.184C15.384 27.184 15.528 27.192 15.672 27.208C15.816 27.224 15.96 27.232 16.104 27.232C16.136 27.232 16.176 27.232 16.224 27.232C16.272 27.232 16.312 27.232 16.344 27.232C16.616 27.2 16.76 27.048 16.776 26.776C16.808 26.488 16.824 26.248 16.824 26.056V13.576C15.912 15.848 14.984 18.112 14.04 20.368C13.112 22.608 12.2 24.872 11.304 27.16H9.432C8.52 24.792 7.576 22.44 6.6 20.104C5.64 17.768 4.696 15.416 3.768 13.048C3.768 15.24 3.784 17.432 3.816 19.624C3.848 21.8 3.864 23.984 3.864 26.176C3.864 26.368 3.872 26.6 3.888 26.872C3.92 27.128 4.072 27.256 4.344 27.256C4.552 27.256 4.752 27.248 4.944 27.232C5.136 27.216 5.336 27.208 5.544 27.208C5.656 27.208 5.752 27.256 5.832 27.352C5.912 27.432 5.952 27.528 5.952 27.64C5.952 27.72 5.92 27.816 5.856 27.928C5.792 28.024 5.712 28.072 5.616 28.072C5.328 28.072 5.04 28.064 4.752 28.048C4.464 28.032 4.176 28.024 3.888 28.024C3.376 28.024 2.856 28.032 2.328 28.048C1.8 28.064 1.28 28.072 0.768 28.072C0.608 28.072 0.504 28.032 0.456 27.952C0.408 27.856 0.384 27.736 0.384 27.592C0.384 27.464 0.432 27.368 0.528 27.304C0.64 27.24 0.744 27.208 0.84 27.208C0.984 27.208 1.128 27.216 1.272 27.232C1.432 27.248 1.584 27.256 1.728 27.256C2 27.256 2.192 27.224 2.304 27.16C2.432 27.08 2.496 26.888 2.496 26.584C2.496 24.152 2.504 21.72 2.52 19.288C2.552 16.84 2.568 14.4 2.568 11.968C2.568 11.712 2.52 11.528 2.424 11.416C2.344 11.288 2.168 11.224 1.896 11.224C1.736 11.224 1.576 11.232 1.416 11.248C1.256 11.264 1.096 11.272 0.936 11.272C0.808 11.272 0.696 11.224 0.6 11.128C0.504 11.032 0.456 10.92 0.456 10.792C0.456 10.488 0.616 10.336 0.936 10.336C1.32 10.336 1.704 10.344 2.088 10.36C2.488 10.376 2.88 10.384 3.264 10.384C3.728 10.384 4.192 10.384 4.656 10.384C5.136 10.384 5.608 10.36 6.072 10.312L11.424 23.56C12.288 21.368 13.192 19.192 14.136 17.032C15.096 14.856 15.936 12.64 16.656 10.384C17.024 10.4 17.392 10.416 17.76 10.432C18.144 10.432 18.528 10.432 18.912 10.432C19.408 10.432 19.904 10.416 20.4 10.384C20.912 10.352 21.416 10.336 21.912 10.336C22.04 10.336 22.128 10.392 22.176 10.504C22.224 10.6 22.248 10.696 22.248 10.792C22.248 10.888 22.224 11 22.176 11.128C22.128 11.24 22.04 11.296 21.912 11.296C21.688 11.296 21.456 11.296 21.216 11.296C20.992 11.28 20.768 11.272 20.544 11.272C20.384 11.272 20.264 11.344 20.184 11.488C20.12 11.616 20.088 11.752 20.088 11.896C20.088 12.824 20.08 13.768 20.064 14.728C20.064 15.672 20.064 16.616 20.064 17.56C20.064 18.968 20.064 20.376 20.064 21.784C20.08 23.192 20.088 24.6 20.088 26.008C20.088 26.152 20.096 26.32 20.112 26.512C20.144 26.704 20.2 26.88 20.28 27.04C20.376 27.184 20.52 27.256 20.712 27.256C20.904 27.256 21.096 27.248 21.288 27.232C21.48 27.216 21.68 27.208 21.888 27.208C21.984 27.208 22.072 27.24 22.152 27.304C22.232 27.368 22.272 27.456 22.272 27.568ZM30.7504 25.456C30.7024 24.704 30.6704 23.952 30.6544 23.2C30.6384 22.432 30.6384 21.664 30.6544 20.896C29.9984 21.008 29.3584 21.216 28.7344 21.52C28.1264 21.808 27.6224 22.2 27.2224 22.696C26.8224 23.192 26.6224 23.824 26.6224 24.592C26.6224 24.912 26.6624 25.256 26.7424 25.624C26.8384 25.992 26.9984 26.304 27.2224 26.56C27.4624 26.8 27.7824 26.92 28.1824 26.92C28.4704 26.92 28.7744 26.84 29.0944 26.68C29.4144 26.504 29.7184 26.304 30.0064 26.08C30.3104 25.856 30.5584 25.648 30.7504 25.456ZM35.6944 26.872C35.6944 26.936 35.6624 27.008 35.5984 27.088C35.5504 27.168 35.5024 27.232 35.4544 27.28C34.9584 27.856 34.3184 28.144 33.5344 28.144C32.8464 28.144 32.2944 27.992 31.8784 27.688C31.4624 27.384 31.1424 26.912 30.9184 26.272C30.4064 26.816 29.8544 27.248 29.2624 27.568C28.6864 27.888 28.0064 28.048 27.2224 28.048C26.6624 28.048 26.0944 27.928 25.5184 27.688C24.9584 27.432 24.4864 27.072 24.1024 26.608C23.7344 26.144 23.5504 25.608 23.5504 25C23.5504 24.392 23.7024 23.856 24.0064 23.392C24.3264 22.912 24.7264 22.504 25.2064 22.168C25.6864 21.816 26.1744 21.528 26.6704 21.304C27.3104 21.032 27.9664 20.824 28.6384 20.68C29.3104 20.52 29.9824 20.36 30.6544 20.2V20.104C30.6544 19.816 30.6464 19.432 30.6304 18.952C30.6304 18.456 30.5824 17.968 30.4864 17.488C30.3904 16.992 30.2304 16.576 30.0064 16.24C29.7824 15.888 29.4544 15.712 29.0224 15.712C28.5264 15.712 28.0784 15.856 27.6784 16.144C27.2944 16.432 27.0224 16.816 26.8624 17.296C26.8304 17.44 26.8064 17.584 26.7904 17.728C26.7744 17.856 26.7504 17.992 26.7184 18.136C26.6864 18.392 26.5344 18.568 26.2624 18.664C26.0064 18.744 25.7664 18.784 25.5424 18.784C25.2704 18.784 25.0064 18.728 24.7504 18.616C24.4944 18.488 24.3664 18.256 24.3664 17.92C24.3664 17.792 24.3824 17.68 24.4144 17.584C24.4624 17.472 24.5104 17.36 24.5584 17.248C24.8144 16.64 25.1984 16.192 25.7104 15.904C26.2224 15.616 26.7824 15.424 27.3904 15.328C28.0144 15.232 28.6064 15.184 29.1664 15.184C30.4784 15.184 31.5584 15.536 32.4064 16.24C33.2544 16.944 33.6784 17.984 33.6784 19.36V22.984C33.6624 23.432 33.6544 23.896 33.6544 24.376C33.6704 24.84 33.6944 25.304 33.7264 25.768C33.7584 26.04 33.8224 26.304 33.9184 26.56C34.0144 26.8 34.2304 26.92 34.5664 26.92C34.7904 26.92 34.9744 26.872 35.1184 26.776C35.2784 26.68 35.4224 26.632 35.5504 26.632C35.6144 26.632 35.6544 26.664 35.6704 26.728C35.6864 26.792 35.6944 26.84 35.6944 26.872ZM46.4211 17.944C46.4211 18.104 46.3731 18.256 46.2771 18.4C46.1971 18.528 46.0691 18.592 45.8931 18.592C45.6211 18.592 45.4371 18.48 45.3411 18.256C45.2451 18.048 45.1411 17.808 45.0291 17.536C44.9331 17.248 44.7971 17 44.6211 16.792C44.4611 16.584 44.2291 16.48 43.9251 16.48C43.7651 16.48 43.6131 16.512 43.4691 16.576C43.3251 16.64 43.1891 16.72 43.0611 16.816C42.5491 17.168 42.1331 17.672 41.8131 18.328C41.5091 18.968 41.3091 19.6 41.2131 20.224V20.2C41.2131 20.792 41.2131 21.384 41.2131 21.976C41.2131 22.568 41.2131 23.16 41.2131 23.752V26.704C41.2131 26.976 41.2851 27.152 41.4291 27.232C41.5891 27.312 41.7731 27.344 41.9811 27.328C42.2051 27.296 42.4051 27.28 42.5811 27.28C42.8051 27.28 42.9171 27.4 42.9171 27.64C42.9171 27.896 42.7891 28.024 42.5331 28.024C42.0531 28.024 41.5731 28.016 41.0931 28C40.6131 27.984 40.1331 27.976 39.6531 27.976C39.1571 27.976 38.6611 27.984 38.1651 28C37.6691 28.032 37.1651 28.048 36.6531 28.048C36.5411 28.048 36.4611 28.008 36.4131 27.928C36.3651 27.832 36.3411 27.744 36.3411 27.664C36.3411 27.424 36.4691 27.304 36.7251 27.304C36.8851 27.304 37.0371 27.312 37.1811 27.328C37.3411 27.328 37.5011 27.328 37.6611 27.328C37.8531 27.328 37.9811 27.264 38.0451 27.136C38.1091 27.008 38.1411 26.864 38.1411 26.704C38.1411 25.568 38.1411 24.424 38.1411 23.272C38.1411 22.12 38.1411 20.976 38.1411 19.84C38.1411 19.536 38.1411 19.232 38.1411 18.928C38.1411 18.624 38.1411 18.32 38.1411 18.016C38.1411 17.84 38.1251 17.632 38.0931 17.392C38.0611 17.152 37.9891 16.936 37.8771 16.744C37.7811 16.552 37.6131 16.456 37.3731 16.456C37.2131 16.456 37.0531 16.48 36.8931 16.528C36.7491 16.56 36.5891 16.576 36.4131 16.576C36.1731 16.576 36.0531 16.456 36.0531 16.216C36.0531 16.04 36.1411 15.92 36.3171 15.856C36.5411 15.776 36.7731 15.728 37.0131 15.712C37.2531 15.68 37.4851 15.64 37.7091 15.592C37.9171 15.544 38.1891 15.48 38.5251 15.4C38.8611 15.304 39.1891 15.224 39.5091 15.16C39.8451 15.08 40.1011 15.04 40.2771 15.04C40.5171 15.04 40.6931 15.128 40.8051 15.304C40.8531 15.384 40.9011 15.576 40.9491 15.88C40.9971 16.168 41.0371 16.464 41.0691 16.768C41.1011 17.072 41.1171 17.288 41.1171 17.416C41.6131 16.792 42.1651 16.224 42.7731 15.712C43.3811 15.2 44.1171 14.944 44.9811 14.944C45.2051 14.944 45.4371 14.992 45.6771 15.088C45.9331 15.168 46.0931 15.336 46.1571 15.592C46.2371 15.896 46.3011 16.288 46.3491 16.768C46.3971 17.232 46.4211 17.624 46.4211 17.944ZM60.7331 27.64C60.7331 27.768 60.6851 27.856 60.5891 27.904C60.5091 27.936 60.4211 27.96 60.3251 27.976C59.9411 28.008 59.5571 28.024 59.1731 28.024C58.7891 28.04 58.4131 28.048 58.0451 28.048C57.8371 28.048 57.6131 28.04 57.3731 28.024C57.1491 28.008 56.9411 27.968 56.7491 27.904C56.5411 27.84 56.3651 27.72 56.2211 27.544C56.0771 27.368 55.9491 27.184 55.8371 26.992C55.2451 25.952 54.6451 24.92 54.0371 23.896C53.4291 22.872 52.8451 21.832 52.2851 20.776L51.6851 21.184V26.704C51.6851 26.992 51.7411 27.176 51.8531 27.256C51.9811 27.336 52.1411 27.368 52.3331 27.352C52.5411 27.32 52.7651 27.304 53.0051 27.304C53.2291 27.304 53.3411 27.432 53.3411 27.688C53.3411 27.944 53.2131 28.072 52.9571 28.072C52.4931 28.072 52.0291 28.056 51.5651 28.024C51.1171 27.992 50.6611 27.976 50.1971 27.976C49.7331 27.976 49.2691 27.992 48.8051 28.024C48.3411 28.072 47.8771 28.096 47.4131 28.096C47.3171 28.096 47.2371 28.056 47.1731 27.976C47.1251 27.88 47.1011 27.784 47.1011 27.688C47.1011 27.448 47.2291 27.328 47.4851 27.328C47.6451 27.328 47.7971 27.336 47.9411 27.352C48.0851 27.352 48.2371 27.352 48.3971 27.352C48.5891 27.352 48.7011 27.288 48.7331 27.16C48.7651 27.032 48.7811 26.888 48.7811 26.728C48.7971 26.504 48.8051 26.28 48.8051 26.056C48.8211 25.832 48.8291 25.616 48.8291 25.408V13.768C48.8291 13.416 48.8211 13.072 48.8051 12.736C48.8051 12.4 48.7971 12.056 48.7811 11.704C48.7651 11.528 48.7331 11.336 48.6851 11.128C48.6531 10.92 48.5171 10.816 48.2771 10.816C48.1171 10.816 47.9571 10.824 47.7971 10.84C47.6531 10.856 47.5011 10.864 47.3411 10.864C47.0851 10.864 46.9571 10.752 46.9571 10.528C46.9571 10.368 47.0451 10.264 47.2211 10.216C47.4131 10.168 47.6131 10.136 47.8211 10.12C48.0291 10.104 48.2291 10.08 48.4211 10.048C48.8691 9.968 49.3091 9.872 49.7411 9.76C50.1891 9.648 50.6371 9.536 51.0851 9.424C51.1331 9.408 51.1731 9.4 51.2051 9.4C51.2531 9.384 51.3011 9.376 51.3491 9.376C51.5891 9.376 51.7091 9.48 51.7091 9.688C51.7091 11.48 51.7011 13.272 51.6851 15.064C51.6691 16.84 51.6611 18.616 51.6611 20.392C52.2211 19.96 52.7891 19.528 53.3651 19.096C53.9411 18.648 54.4851 18.176 54.9971 17.68C55.2371 17.44 55.4851 17.2 55.7411 16.96C55.9971 16.704 56.2211 16.44 56.4131 16.168C56.5411 15.992 56.6131 15.824 56.6291 15.664C56.6611 15.488 56.7011 15.344 56.7491 15.232C56.8131 15.12 56.9491 15.064 57.1571 15.064C57.5731 15.064 57.9891 15.072 58.4051 15.088C58.8211 15.088 59.2291 15.088 59.6291 15.088C59.8691 15.088 59.9891 15.192 59.9891 15.4C59.9891 15.576 59.9331 15.68 59.8211 15.712C59.7091 15.744 59.5891 15.76 59.4611 15.76C59.2211 15.76 58.9651 15.808 58.6931 15.904C58.4371 16 58.2211 16.112 58.0451 16.24C57.4371 16.704 56.8371 17.192 56.2451 17.704C55.6691 18.2 55.0851 18.704 54.4931 19.216C54.6531 19.488 54.8931 19.904 55.2131 20.464C55.5491 21.024 55.9251 21.648 56.3411 22.336C56.7571 23.024 57.1811 23.696 57.6131 24.352C58.0451 25.008 58.4371 25.584 58.7891 26.08C59.1571 26.56 59.4451 26.88 59.6531 27.04C59.7971 27.152 59.9331 27.224 60.0611 27.256C60.1891 27.288 60.3331 27.328 60.4931 27.376C60.6531 27.424 60.7331 27.512 60.7331 27.64ZM83.6483 23.968C83.6483 24.048 83.6083 24.16 83.5283 24.304C83.4483 24.448 83.3923 24.56 83.3603 24.64C83.1523 25.008 82.8323 25.392 82.4003 25.792C81.9683 26.192 81.5683 26.52 81.2003 26.776C80.4483 27.304 79.6563 27.648 78.8243 27.808C77.9923 27.968 77.1283 28.048 76.2323 28.048C74.4883 28.048 73.0003 27.688 71.7683 26.968C70.5363 26.232 69.5923 25.216 68.9363 23.92C68.2963 22.608 67.9763 21.096 67.9763 19.384C67.9763 17.688 68.2883 16.16 68.9123 14.8C69.5363 13.44 70.4563 12.36 71.6723 11.56C72.9043 10.744 74.4083 10.336 76.1843 10.336C76.9843 10.336 77.6643 10.432 78.2243 10.624C78.7843 10.816 79.4163 11.04 80.1203 11.296C80.4563 11.408 80.7923 11.496 81.1283 11.56C81.4643 11.608 81.8083 11.648 82.1603 11.68C82.1763 12.032 82.2003 12.392 82.2323 12.76C82.2643 13.112 82.3043 13.472 82.3523 13.84C82.3843 14.144 82.4403 14.456 82.5203 14.776C82.6003 15.096 82.6403 15.416 82.6403 15.736C82.6403 16.04 82.5283 16.264 82.3043 16.408C82.0963 16.552 81.8563 16.624 81.5843 16.624C81.1363 16.624 80.8243 16.44 80.6483 16.072C80.6003 15.944 80.5683 15.808 80.5523 15.664C80.5363 15.504 80.5123 15.368 80.4803 15.256C80.3683 14.744 80.1683 14.192 79.8802 13.6C79.6083 12.992 79.2803 12.512 78.8963 12.16C78.5923 11.888 78.1763 11.648 77.6483 11.44C77.1203 11.216 76.6483 11.104 76.2323 11.104C75.8323 11.104 75.4563 11.192 75.1043 11.368C74.7683 11.544 74.4403 11.76 74.1203 12.016C73.4323 12.592 72.8883 13.28 72.4883 14.08C72.0883 14.88 71.8083 15.736 71.6483 16.648C71.4883 17.544 71.4083 18.424 71.4083 19.288C71.4083 19.864 71.4403 20.44 71.5043 21.016C71.5843 21.576 71.7043 22.136 71.8643 22.696C72.0883 23.448 72.4083 24.16 72.8242 24.832C73.2563 25.488 73.7843 26.024 74.4083 26.44C75.0483 26.84 75.7843 27.04 76.6163 27.04C77.8003 27.04 78.8723 26.744 79.8323 26.152C80.8083 25.56 81.6163 24.784 82.2563 23.824C82.3523 23.664 82.4483 23.528 82.5443 23.416C82.6563 23.288 82.8163 23.224 83.0243 23.224C83.2323 23.224 83.3843 23.304 83.4803 23.464C83.5923 23.624 83.6483 23.792 83.6483 23.968ZM91.7029 27.688C91.7029 27.944 91.5749 28.072 91.3189 28.072C90.8229 28.072 90.3349 28.048 89.8549 28C89.3749 27.968 88.8869 27.952 88.3909 27.952C87.8789 27.952 87.3589 27.968 86.8309 28C86.3189 28.048 85.8069 28.072 85.2949 28.072C85.1829 28.072 85.1029 28.032 85.0549 27.952C85.0069 27.856 84.9829 27.76 84.9829 27.664C84.9829 27.488 85.0629 27.376 85.2229 27.328C85.3989 27.28 85.5909 27.264 85.7989 27.28C86.0229 27.296 86.1909 27.304 86.3029 27.304C86.6549 27.304 86.8309 27.112 86.8309 26.728V24.784C86.8309 22.672 86.8309 20.568 86.8309 18.472C86.8309 16.36 86.8309 14.248 86.8309 12.136C86.8309 11.96 86.8149 11.744 86.7829 11.488C86.7509 11.216 86.5989 11.08 86.3269 11.08C86.1349 11.08 85.9429 11.112 85.7509 11.176C85.5749 11.224 85.3909 11.248 85.1989 11.248C84.9589 11.248 84.8389 11.12 84.8389 10.864C84.8389 10.688 84.9429 10.56 85.1509 10.48C85.3589 10.416 85.5749 10.368 85.7989 10.336C86.0389 10.304 86.2629 10.264 86.4709 10.216C86.9509 10.104 87.4229 9.992 87.8869 9.88C88.3669 9.752 88.8389 9.632 89.3029 9.52C89.3509 9.504 89.3989 9.496 89.4469 9.496C89.4949 9.48 89.5429 9.472 89.5909 9.472C89.6869 9.472 89.7749 9.496 89.8549 9.544C89.9509 9.576 89.9989 9.656 89.9989 9.784C89.9989 12.6 89.9909 15.424 89.9749 18.256C89.9589 21.088 89.9509 23.912 89.9509 26.728C89.9509 27 90.0309 27.176 90.1909 27.256C90.3509 27.336 90.5429 27.368 90.7669 27.352C90.9909 27.32 91.1909 27.304 91.3669 27.304C91.5909 27.304 91.7029 27.432 91.7029 27.688ZM99.8798 27.712C99.8798 27.968 99.7518 28.096 99.4958 28.096C99.0318 28.096 98.5598 28.072 98.0798 28.024C97.5998 27.992 97.1198 27.976 96.6398 27.976C96.1598 27.976 95.6718 27.992 95.1758 28.024C94.6958 28.072 94.2158 28.096 93.7358 28.096C93.6238 28.096 93.5438 28.056 93.4958 27.976C93.4478 27.88 93.4238 27.792 93.4238 27.712C93.4238 27.456 93.5438 27.328 93.7838 27.328C93.9438 27.328 94.0958 27.336 94.2398 27.352C94.3838 27.368 94.5278 27.376 94.6718 27.376C94.8638 27.376 94.9838 27.312 95.0318 27.184C95.0958 27.056 95.1278 26.912 95.1278 26.752V17.224C95.1278 17.064 95.1118 16.888 95.0798 16.696C95.0478 16.488 94.9198 16.384 94.6958 16.384C94.4878 16.384 94.2718 16.4 94.0478 16.432C93.8238 16.464 93.5998 16.48 93.3758 16.48C93.2798 16.48 93.1838 16.456 93.0878 16.408C93.0078 16.36 92.9678 16.28 92.9678 16.168C92.9678 15.96 93.0718 15.824 93.2798 15.76C93.4558 15.728 93.6398 15.704 93.8318 15.688C94.0398 15.656 94.2318 15.632 94.4078 15.616C94.9678 15.536 95.5118 15.44 96.0398 15.328C96.5838 15.2 97.1278 15.072 97.6718 14.944C97.7198 14.944 97.7678 14.944 97.8158 14.944C97.8638 14.928 97.9038 14.92 97.9358 14.92C98.1758 14.92 98.2958 15.016 98.2958 15.208C98.2958 17.128 98.2878 19.056 98.2718 20.992C98.2558 22.912 98.2478 24.832 98.2478 26.752C98.2478 27.04 98.3118 27.224 98.4398 27.304C98.5678 27.368 98.7278 27.392 98.9198 27.376C99.1278 27.36 99.3358 27.352 99.5438 27.352C99.7678 27.352 99.8798 27.472 99.8798 27.712ZM98.3678 11.224C98.3678 11.72 98.1838 12.152 97.8158 12.52C97.4638 12.888 97.0318 13.072 96.5198 13.072C96.0238 13.072 95.5918 12.888 95.2238 12.52C94.8558 12.152 94.6718 11.72 94.6718 11.224C94.6718 10.712 94.8558 10.28 95.2238 9.928C95.5918 9.56 96.0238 9.376 96.5198 9.376C97.0318 9.376 97.4638 9.56 97.8158 9.928C98.1838 10.28 98.3678 10.712 98.3678 11.224ZM111.034 21.616C111.034 21.28 111.026 20.88 111.01 20.416C110.994 19.936 110.946 19.448 110.866 18.952C110.802 18.44 110.682 17.968 110.506 17.536C110.346 17.088 110.114 16.728 109.81 16.456C109.506 16.184 109.114 16.048 108.634 16.048C107.994 16.048 107.466 16.232 107.05 16.6C106.65 16.968 106.322 17.432 106.066 17.992V24.256C106.066 24.656 106.138 25.096 106.282 25.576C106.442 26.04 106.682 26.44 107.002 26.776C107.322 27.096 107.722 27.256 108.202 27.256C108.906 27.256 109.45 27.064 109.834 26.68C110.234 26.28 110.514 25.784 110.674 25.192C110.85 24.6 110.954 23.984 110.986 23.344C111.018 22.688 111.034 22.112 111.034 21.616ZM114.322 21.28C114.322 22.576 114.106 23.728 113.674 24.736C113.242 25.728 112.578 26.512 111.682 27.088C110.786 27.648 109.65 27.928 108.274 27.928C107.922 27.928 107.53 27.848 107.098 27.688C106.682 27.512 106.33 27.336 106.042 27.16C106.042 27.512 106.034 27.864 106.018 28.216C106.018 28.584 106.026 28.952 106.042 29.32V31.264C106.042 31.408 106.066 31.552 106.114 31.696C106.178 31.84 106.298 31.912 106.474 31.912C106.602 31.912 106.73 31.904 106.858 31.888C107.002 31.888 107.138 31.888 107.266 31.888C107.49 31.888 107.602 32.008 107.602 32.248C107.602 32.504 107.482 32.632 107.242 32.632C106.794 32.632 106.346 32.616 105.898 32.584C105.45 32.552 104.994 32.536 104.53 32.536C104.066 32.536 103.594 32.552 103.114 32.584C102.634 32.616 102.162 32.632 101.698 32.632C101.586 32.632 101.506 32.584 101.458 32.488C101.41 32.408 101.386 32.328 101.386 32.248C101.386 32.008 101.506 31.888 101.746 31.888C101.874 31.888 102.002 31.888 102.13 31.888C102.258 31.904 102.378 31.912 102.49 31.912C102.666 31.912 102.794 31.848 102.874 31.72C102.954 31.608 102.994 31.472 102.994 31.312C102.994 28.976 102.994 26.64 102.994 24.304C103.01 21.952 103.018 19.608 103.018 17.272C103.018 17.096 102.994 16.904 102.946 16.696C102.898 16.488 102.754 16.384 102.514 16.384C102.354 16.384 102.194 16.392 102.034 16.408C101.89 16.424 101.738 16.432 101.578 16.432C101.482 16.432 101.37 16.416 101.242 16.384C101.13 16.336 101.074 16.248 101.074 16.12C101.074 16.024 101.106 15.952 101.17 15.904C101.234 15.856 101.306 15.824 101.386 15.808C101.562 15.744 101.746 15.704 101.938 15.688C102.13 15.672 102.314 15.648 102.49 15.616C103.306 15.472 104.09 15.28 104.842 15.04C104.906 15.008 104.97 14.984 105.034 14.968C105.098 14.936 105.162 14.92 105.226 14.92C105.338 14.92 105.434 15.016 105.514 15.208C105.61 15.4 105.682 15.608 105.73 15.832C105.794 16.056 105.842 16.216 105.874 16.312C106.098 16.184 106.418 16.04 106.834 15.88C107.25 15.704 107.666 15.552 108.082 15.424C108.514 15.28 108.85 15.208 109.09 15.208C109.906 15.208 110.634 15.384 111.274 15.736C111.914 16.088 112.458 16.56 112.906 17.152C113.37 17.728 113.722 18.376 113.962 19.096C114.202 19.816 114.322 20.544 114.322 21.28ZM125.635 21.616C125.635 21.28 125.627 20.88 125.611 20.416C125.595 19.936 125.547 19.448 125.467 18.952C125.403 18.44 125.283 17.968 125.107 17.536C124.947 17.088 124.715 16.728 124.411 16.456C124.107 16.184 123.715 16.048 123.235 16.048C122.595 16.048 122.067 16.232 121.651 16.6C121.251 16.968 120.923 17.432 120.667 17.992V24.256C120.667 24.656 120.739 25.096 120.883 25.576C121.043 26.04 121.283 26.44 121.603 26.776C121.923 27.096 122.323 27.256 122.803 27.256C123.507 27.256 124.051 27.064 124.435 26.68C124.835 26.28 125.115 25.784 125.275 25.192C125.451 24.6 125.555 23.984 125.587 23.344C125.619 22.688 125.635 22.112 125.635 21.616ZM128.923 21.28C128.923 22.576 128.707 23.728 128.275 24.736C127.843 25.728 127.179 26.512 126.283 27.088C125.387 27.648 124.251 27.928 122.875 27.928C122.523 27.928 122.131 27.848 121.699 27.688C121.283 27.512 120.931 27.336 120.643 27.16C120.643 27.512 120.635 27.864 120.619 28.216C120.619 28.584 120.627 28.952 120.643 29.32V31.264C120.643 31.408 120.667 31.552 120.715 31.696C120.779 31.84 120.899 31.912 121.075 31.912C121.203 31.912 121.331 31.904 121.459 31.888C121.603 31.888 121.739 31.888 121.867 31.888C122.091 31.888 122.203 32.008 122.203 32.248C122.203 32.504 122.083 32.632 121.843 32.632C121.395 32.632 120.947 32.616 120.499 32.584C120.051 32.552 119.595 32.536 119.131 32.536C118.667 32.536 118.195 32.552 117.715 32.584C117.235 32.616 116.763 32.632 116.299 32.632C116.187 32.632 116.107 32.584 116.059 32.488C116.011 32.408 115.987 32.328 115.987 32.248C115.987 32.008 116.107 31.888 116.347 31.888C116.475 31.888 116.603 31.888 116.731 31.888C116.859 31.904 116.979 31.912 117.091 31.912C117.267 31.912 117.395 31.848 117.475 31.72C117.555 31.608 117.595 31.472 117.595 31.312C117.595 28.976 117.595 26.64 117.595 24.304C117.611 21.952 117.619 19.608 117.619 17.272C117.619 17.096 117.595 16.904 117.547 16.696C117.499 16.488 117.355 16.384 117.115 16.384C116.955 16.384 116.795 16.392 116.635 16.408C116.491 16.424 116.339 16.432 116.179 16.432C116.083 16.432 115.971 16.416 115.843 16.384C115.731 16.336 115.675 16.248 115.675 16.12C115.675 16.024 115.707 15.952 115.771 15.904C115.835 15.856 115.907 15.824 115.987 15.808C116.163 15.744 116.347 15.704 116.539 15.688C116.731 15.672 116.915 15.648 117.091 15.616C117.907 15.472 118.691 15.28 119.443 15.04C119.507 15.008 119.571 14.984 119.635 14.968C119.699 14.936 119.763 14.92 119.827 14.92C119.939 14.92 120.035 15.016 120.115 15.208C120.211 15.4 120.283 15.608 120.331 15.832C120.395 16.056 120.443 16.216 120.475 16.312C120.699 16.184 121.019 16.04 121.435 15.88C121.851 15.704 122.267 15.552 122.683 15.424C123.115 15.28 123.451 15.208 123.691 15.208C124.507 15.208 125.235 15.384 125.875 15.736C126.515 16.088 127.059 16.56 127.507 17.152C127.971 17.728 128.323 18.376 128.563 19.096C128.803 19.816 128.923 20.544 128.923 21.28ZM138.869 19.576C138.869 19.256 138.853 18.872 138.821 18.424C138.789 17.976 138.709 17.544 138.581 17.128C138.469 16.696 138.285 16.336 138.029 16.048C137.773 15.76 137.421 15.616 136.973 15.616C136.541 15.616 136.157 15.76 135.821 16.048C135.501 16.32 135.229 16.672 135.005 17.104C134.781 17.52 134.605 17.96 134.477 18.424C134.349 18.872 134.253 19.272 134.189 19.624C134.461 19.624 134.725 19.632 134.981 19.648C135.253 19.648 135.517 19.648 135.773 19.648C136.813 19.648 137.845 19.624 138.869 19.576ZM142.325 24.88C142.325 24.928 142.309 25 142.277 25.096C142.261 25.176 142.237 25.24 142.205 25.288C142.093 25.544 141.885 25.84 141.581 26.176C141.277 26.496 141.005 26.744 140.765 26.92C139.693 27.736 138.453 28.144 137.045 28.144C135.781 28.144 134.685 27.88 133.757 27.352C132.829 26.808 132.117 26.056 131.621 25.096C131.125 24.136 130.877 23.032 130.877 21.784C130.877 20.536 131.117 19.408 131.597 18.4C132.093 17.376 132.797 16.568 133.709 15.976C134.637 15.368 135.749 15.064 137.045 15.064C138.533 15.064 139.725 15.472 140.621 16.288C141.517 17.104 141.965 18.272 141.965 19.792C141.965 20.208 141.773 20.416 141.389 20.416C140.685 20.416 139.981 20.408 139.277 20.392C138.573 20.376 137.869 20.368 137.165 20.368C136.653 20.368 136.141 20.368 135.629 20.368C135.117 20.368 134.605 20.376 134.093 20.392C134.045 20.872 134.021 21.36 134.021 21.856C134.021 22.304 134.077 22.832 134.189 23.44C134.317 24.048 134.501 24.64 134.741 25.216C134.997 25.792 135.325 26.272 135.725 26.656C136.125 27.024 136.613 27.208 137.189 27.208C137.909 27.208 138.509 27.104 138.989 26.896C139.485 26.688 139.925 26.392 140.309 26.008C140.693 25.624 141.085 25.168 141.485 24.64C141.533 24.576 141.581 24.528 141.629 24.496C141.693 24.448 141.765 24.424 141.845 24.424C141.957 24.424 142.061 24.472 142.157 24.568C142.269 24.648 142.325 24.752 142.325 24.88ZM153.507 17.944C153.507 18.104 153.459 18.256 153.363 18.4C153.283 18.528 153.155 18.592 152.979 18.592C152.707 18.592 152.523 18.48 152.427 18.256C152.331 18.048 152.227 17.808 152.115 17.536C152.019 17.248 151.883 17 151.707 16.792C151.547 16.584 151.315 16.48 151.011 16.48C150.851 16.48 150.699 16.512 150.555 16.576C150.411 16.64 150.275 16.72 150.147 16.816C149.635 17.168 149.219 17.672 148.899 18.328C148.595 18.968 148.395 19.6 148.299 20.224V20.2C148.299 20.792 148.299 21.384 148.299 21.976C148.299 22.568 148.299 23.16 148.299 23.752V26.704C148.299 26.976 148.371 27.152 148.515 27.232C148.675 27.312 148.859 27.344 149.067 27.328C149.291 27.296 149.491 27.28 149.667 27.28C149.891 27.28 150.003 27.4 150.003 27.64C150.003 27.896 149.875 28.024 149.619 28.024C149.139 28.024 148.659 28.016 148.179 28C147.699 27.984 147.219 27.976 146.739 27.976C146.243 27.976 145.747 27.984 145.251 28C144.755 28.032 144.251 28.048 143.739 28.048C143.627 28.048 143.547 28.008 143.499 27.928C143.451 27.832 143.427 27.744 143.427 27.664C143.427 27.424 143.555 27.304 143.811 27.304C143.971 27.304 144.123 27.312 144.267 27.328C144.427 27.328 144.587 27.328 144.747 27.328C144.939 27.328 145.067 27.264 145.131 27.136C145.195 27.008 145.227 26.864 145.227 26.704C145.227 25.568 145.227 24.424 145.227 23.272C145.227 22.12 145.227 20.976 145.227 19.84C145.227 19.536 145.227 19.232 145.227 18.928C145.227 18.624 145.227 18.32 145.227 18.016C145.227 17.84 145.211 17.632 145.179 17.392C145.147 17.152 145.075 16.936 144.963 16.744C144.867 16.552 144.699 16.456 144.459 16.456C144.299 16.456 144.139 16.48 143.979 16.528C143.835 16.56 143.675 16.576 143.499 16.576C143.259 16.576 143.139 16.456 143.139 16.216C143.139 16.04 143.227 15.92 143.403 15.856C143.627 15.776 143.859 15.728 144.099 15.712C144.339 15.68 144.571 15.64 144.795 15.592C145.003 15.544 145.275 15.48 145.611 15.4C145.947 15.304 146.275 15.224 146.595 15.16C146.931 15.08 147.187 15.04 147.363 15.04C147.603 15.04 147.779 15.128 147.891 15.304C147.939 15.384 147.987 15.576 148.035 15.88C148.083 16.168 148.123 16.464 148.155 16.768C148.187 17.072 148.203 17.288 148.203 17.416C148.699 16.792 149.251 16.224 149.859 15.712C150.467 15.2 151.203 14.944 152.067 14.944C152.291 14.944 152.523 14.992 152.763 15.088C153.019 15.168 153.179 15.336 153.243 15.592C153.323 15.896 153.387 16.288 153.435 16.768C153.483 17.232 153.507 17.624 153.507 17.944ZM162.443 26.848C162.443 27.072 162.323 27.272 162.083 27.448C161.859 27.608 161.571 27.744 161.219 27.856C160.883 27.952 160.539 28.024 160.187 28.072C159.835 28.12 159.539 28.144 159.299 28.144C158.099 28.144 157.267 27.904 156.803 27.424C156.339 26.928 156.107 26.112 156.107 24.976C156.107 23.6 156.115 22.224 156.131 20.848C156.147 19.472 156.155 18.096 156.155 16.72H155.051C154.891 16.72 154.755 16.776 154.643 16.888C154.531 16.984 154.427 17.032 154.331 17.032C154.171 17.032 154.091 16.952 154.091 16.792C154.091 16.728 154.123 16.608 154.187 16.432C154.251 16.256 154.299 16.144 154.331 16.096C154.379 16 154.427 15.944 154.475 15.928C154.523 15.912 154.595 15.904 154.691 15.904H156.179V13.336C156.579 13.112 157.019 12.784 157.499 12.352C157.979 11.92 158.347 11.52 158.603 11.152C158.651 11.072 158.715 10.992 158.795 10.912C158.875 10.816 158.971 10.768 159.083 10.768C159.339 10.768 159.459 10.88 159.443 11.104L159.371 15.904H161.843C161.971 15.904 162.083 15.936 162.179 16C162.291 16.048 162.347 16.144 162.347 16.288C162.347 16.592 162.179 16.744 161.843 16.744H159.371L159.323 26.008C159.323 26.264 159.371 26.512 159.467 26.752C159.579 26.976 159.787 27.088 160.091 27.088C160.363 27.088 160.635 27.064 160.907 27.016C161.195 26.968 161.459 26.888 161.699 26.776C161.779 26.744 161.851 26.712 161.915 26.68C161.995 26.632 162.075 26.608 162.155 26.608C162.347 26.608 162.443 26.688 162.443 26.848ZM173.005 21.688C173.005 21.16 172.965 20.56 172.885 19.888C172.821 19.2 172.677 18.536 172.453 17.896C172.229 17.256 171.901 16.728 171.469 16.312C171.053 15.88 170.485 15.664 169.765 15.664C169.109 15.664 168.581 15.872 168.181 16.288C167.781 16.704 167.469 17.224 167.245 17.848C167.037 18.472 166.893 19.12 166.813 19.792C166.733 20.448 166.693 21.016 166.693 21.496C166.693 22.024 166.725 22.632 166.789 23.32C166.869 23.992 167.021 24.648 167.245 25.288C167.469 25.928 167.797 26.456 168.229 26.872C168.661 27.288 169.237 27.496 169.957 27.496C170.629 27.496 171.165 27.296 171.565 26.896C171.981 26.48 172.293 25.968 172.501 25.36C172.709 24.736 172.845 24.096 172.909 23.44C172.973 22.768 173.005 22.184 173.005 21.688ZM176.269 21.808C176.269 23.04 175.989 24.136 175.429 25.096C174.869 26.04 174.101 26.784 173.125 27.328C172.165 27.872 171.069 28.144 169.837 28.144C168.605 28.144 167.517 27.856 166.573 27.28C165.629 26.704 164.885 25.928 164.341 24.952C163.813 23.976 163.549 22.88 163.549 21.664C163.549 20.4 163.813 19.272 164.341 18.28C164.869 17.272 165.613 16.48 166.573 15.904C167.533 15.312 168.653 15.016 169.933 15.016C171.341 15.016 172.509 15.304 173.437 15.88C174.381 16.44 175.085 17.232 175.549 18.256C176.029 19.264 176.269 20.448 176.269 21.808ZM191.968 27.664C191.968 27.92 191.84 28.048 191.584 28.048C191.12 28.048 190.648 28.032 190.168 28C189.704 27.984 189.24 27.976 188.776 27.976C188.328 27.976 187.872 27.984 187.408 28C186.944 28.032 186.48 28.048 186.016 28.048C185.904 28.048 185.824 28.008 185.776 27.928C185.728 27.832 185.704 27.736 185.704 27.64C185.704 27.4 185.832 27.28 186.088 27.28C186.232 27.28 186.376 27.288 186.52 27.304C186.664 27.304 186.808 27.304 186.952 27.304C187.192 27.304 187.312 27.2 187.312 26.992C187.312 25.648 187.312 24.304 187.312 22.96C187.328 21.616 187.336 20.272 187.336 18.928C187.336 18.496 187.296 18.048 187.216 17.584C187.152 17.12 186.992 16.728 186.736 16.408C186.496 16.088 186.096 15.928 185.536 15.928C185.184 15.928 184.816 16.056 184.432 16.312C184.064 16.568 183.728 16.872 183.424 17.224C183.136 17.576 182.928 17.904 182.8 18.208V26.704C182.8 26.848 182.816 26.984 182.848 27.112C182.896 27.24 183.008 27.304 183.184 27.304C183.312 27.304 183.44 27.304 183.568 27.304C183.712 27.288 183.848 27.28 183.976 27.28C184.056 27.28 184.136 27.312 184.216 27.376C184.296 27.44 184.336 27.512 184.336 27.592C184.336 27.896 184.208 28.048 183.952 28.048C183.504 28.048 183.056 28.032 182.608 28C182.176 27.952 181.728 27.928 181.264 27.928C180.784 27.928 180.296 27.952 179.8 28C179.32 28.032 178.832 28.048 178.336 28.048C178.224 28.048 178.144 28.008 178.096 27.928C178.048 27.832 178.024 27.736 178.024 27.64C178.024 27.4 178.152 27.28 178.408 27.28C178.552 27.28 178.696 27.288 178.84 27.304C178.984 27.304 179.136 27.304 179.296 27.304C179.52 27.304 179.648 27.256 179.68 27.16C179.712 27.064 179.728 26.912 179.728 26.704V23.224C179.728 22.248 179.728 21.272 179.728 20.296C179.728 19.32 179.728 18.344 179.728 17.368C179.728 17.192 179.704 17 179.656 16.792C179.608 16.568 179.464 16.456 179.224 16.456C179.064 16.456 178.904 16.464 178.744 16.48C178.6 16.496 178.448 16.504 178.288 16.504C178.192 16.504 178.08 16.488 177.952 16.456C177.84 16.408 177.784 16.32 177.784 16.192C177.784 16.096 177.816 16.024 177.88 15.976C177.944 15.928 178.016 15.896 178.096 15.88C178.256 15.832 178.424 15.8 178.6 15.784C178.776 15.768 178.944 15.744 179.104 15.712C179.52 15.632 179.928 15.544 180.328 15.448C180.744 15.336 181.152 15.224 181.552 15.112C181.616 15.08 181.68 15.056 181.744 15.04C181.808 15.008 181.872 14.992 181.936 14.992C182.064 14.992 182.176 15.112 182.272 15.352C182.384 15.592 182.472 15.848 182.536 16.12C182.616 16.392 182.664 16.584 182.68 16.696C183.144 16.28 183.704 15.912 184.36 15.592C185.016 15.256 185.664 15.088 186.304 15.088C187.376 15.088 188.208 15.224 188.8 15.496C189.408 15.768 189.84 16.224 190.096 16.864C190.352 17.488 190.48 18.328 190.48 19.384C190.48 20.632 190.472 21.88 190.456 23.128C190.44 24.376 190.432 25.624 190.432 26.872C190.432 27.032 190.48 27.152 190.576 27.232C190.688 27.296 190.824 27.328 190.984 27.328C191.096 27.328 191.2 27.32 191.296 27.304C191.408 27.288 191.52 27.28 191.632 27.28C191.856 27.28 191.968 27.408 191.968 27.664Z" fill="#0070E0"/>
<path d="M8.61626 43.098C8.61626 43.91 8.33626 44.5867 7.77626 45.128C7.22559 45.66 6.38093 45.926 5.24226 45.926H3.36626V50H2.09226V40.242H5.24226C6.34359 40.242 7.17893 40.508 7.74826 41.04C8.32693 41.572 8.61626 42.258 8.61626 43.098ZM5.24226 44.876C5.95159 44.876 6.47426 44.722 6.81026 44.414C7.14626 44.106 7.31426 43.6673 7.31426 43.098C7.31426 41.894 6.62359 41.292 5.24226 41.292H3.36626V44.876H5.24226ZM19.1177 50L16.7937 46.01H15.2537V50H13.9797V40.242H17.1297C17.867 40.242 18.4877 40.368 18.9917 40.62C19.505 40.872 19.8877 41.2127 20.1397 41.642C20.3917 42.0713 20.5177 42.5613 20.5177 43.112C20.5177 43.784 20.3217 44.3767 19.9297 44.89C19.547 45.4033 18.9683 45.744 18.1937 45.912L20.6437 50H19.1177ZM15.2537 44.988H17.1297C17.8203 44.988 18.3383 44.82 18.6837 44.484C19.029 44.1387 19.2017 43.6813 19.2017 43.112C19.2017 42.5333 19.029 42.0853 18.6837 41.768C18.3477 41.4507 17.8297 41.292 17.1297 41.292H15.2537V44.988ZM30.7013 50.098C29.7959 50.098 28.9699 49.888 28.2233 49.468C27.4766 49.0387 26.8839 48.446 26.4453 47.69C26.0159 46.9247 25.8013 46.066 25.8013 45.114C25.8013 44.162 26.0159 43.308 26.4453 42.552C26.8839 41.7867 27.4766 41.194 28.2233 40.774C28.9699 40.3447 29.7959 40.13 30.7013 40.13C31.6159 40.13 32.4466 40.3447 33.1933 40.774C33.9399 41.194 34.5279 41.782 34.9573 42.538C35.3866 43.294 35.6013 44.1527 35.6013 45.114C35.6013 46.0753 35.3866 46.934 34.9573 47.69C34.5279 48.446 33.9399 49.0387 33.1933 49.468C32.4466 49.888 31.6159 50.098 30.7013 50.098ZM30.7013 48.992C31.3826 48.992 31.9939 48.8333 32.5353 48.516C33.0859 48.1987 33.5153 47.746 33.8233 47.158C34.1406 46.57 34.2993 45.8887 34.2993 45.114C34.2993 44.33 34.1406 43.6487 33.8233 43.07C33.5153 42.482 33.0906 42.0293 32.5493 41.712C32.0079 41.3947 31.3919 41.236 30.7013 41.236C30.0106 41.236 29.3946 41.3947 28.8533 41.712C28.3119 42.0293 27.8826 42.482 27.5653 43.07C27.2573 43.6487 27.1033 44.33 27.1033 45.114C27.1033 45.8887 27.2573 46.57 27.5653 47.158C27.8826 47.746 28.3119 48.1987 28.8533 48.516C29.4039 48.8333 30.0199 48.992 30.7013 48.992ZM44.1011 40.242C45.1651 40.242 46.0845 40.4427 46.8591 40.844C47.6431 41.236 48.2405 41.8007 48.6511 42.538C49.0711 43.2753 49.2811 44.1433 49.2811 45.142C49.2811 46.1407 49.0711 47.0087 48.6511 47.746C48.2405 48.474 47.6431 49.034 46.8591 49.426C46.0845 49.8087 45.1651 50 44.1011 50H41.0631V40.242H44.1011ZM44.1011 48.95C45.3611 48.95 46.3225 48.6187 46.9851 47.956C47.6478 47.284 47.9791 46.346 47.9791 45.142C47.9791 43.9287 47.6431 42.9813 46.9711 42.3C46.3085 41.6187 45.3518 41.278 44.1011 41.278H42.3371V48.95H44.1011ZM55.9876 40.242V46.416C55.9876 47.284 56.1976 47.928 56.6176 48.348C57.0469 48.768 57.6396 48.978 58.3956 48.978C59.1422 48.978 59.7256 48.768 60.1456 48.348C60.5749 47.928 60.7896 47.284 60.7896 46.416V40.242H62.0636V46.402C62.0636 47.214 61.9002 47.9 61.5736 48.46C61.2469 49.0107 60.8036 49.4213 60.2436 49.692C59.6929 49.9627 59.0722 50.098 58.3816 50.098C57.6909 50.098 57.0656 49.9627 56.5056 49.692C55.9549 49.4213 55.5162 49.0107 55.1896 48.46C54.8722 47.9 54.7136 47.214 54.7136 46.402V40.242H55.9876ZM67.4928 45.114C67.4928 44.162 67.7075 43.308 68.1368 42.552C68.5662 41.7867 69.1495 41.1893 69.8868 40.76C70.6335 40.3307 71.4595 40.116 72.3648 40.116C73.4288 40.116 74.3575 40.3727 75.1508 40.886C75.9442 41.3993 76.5228 42.1273 76.8868 43.07H75.3608C75.0902 42.482 74.6982 42.0293 74.1848 41.712C73.6808 41.3947 73.0742 41.236 72.3648 41.236C71.6835 41.236 71.0722 41.3947 70.5308 41.712C69.9895 42.0293 69.5648 42.482 69.2568 43.07C68.9488 43.6487 68.7948 44.33 68.7948 45.114C68.7948 45.8887 68.9488 46.57 69.2568 47.158C69.5648 47.7367 69.9895 48.1847 70.5308 48.502C71.0722 48.8193 71.6835 48.978 72.3648 48.978C73.0742 48.978 73.6808 48.824 74.1848 48.516C74.6982 48.1987 75.0902 47.746 75.3608 47.158H76.8868C76.5228 48.0913 75.9442 48.8147 75.1508 49.328C74.3575 49.832 73.4288 50.084 72.3648 50.084C71.4595 50.084 70.6335 49.874 69.8868 49.454C69.1495 49.0247 68.5662 48.432 68.1368 47.676C67.7075 46.92 67.4928 46.066 67.4928 45.114ZM88.5693 40.242V41.278H85.9093V50H84.6353V41.278H81.9613V40.242H88.5693ZM104.468 40.242C105.532 40.242 106.451 40.4427 107.226 40.844C108.01 41.236 108.607 41.8007 109.018 42.538C109.438 43.2753 109.648 44.1433 109.648 45.142C109.648 46.1407 109.438 47.0087 109.018 47.746C108.607 48.474 108.01 49.034 107.226 49.426C106.451 49.8087 105.532 50 104.468 50H101.43V40.242H104.468ZM104.468 48.95C105.728 48.95 106.689 48.6187 107.352 47.956C108.015 47.284 108.346 46.346 108.346 45.142C108.346 43.9287 108.01 42.9813 107.338 42.3C106.675 41.6187 105.719 41.278 104.468 41.278H102.704V48.95H104.468ZM116.382 41.278V44.54H119.938V45.59H116.382V48.95H120.358V50H115.108V40.228H120.358V41.278H116.382ZM129.16 50.098C128.516 50.098 127.937 49.986 127.424 49.762C126.92 49.5287 126.523 49.2113 126.234 48.81C125.945 48.3993 125.795 47.928 125.786 47.396H127.144C127.191 47.8533 127.377 48.2407 127.704 48.558C128.04 48.866 128.525 49.02 129.16 49.02C129.767 49.02 130.243 48.8707 130.588 48.572C130.943 48.264 131.12 47.872 131.12 47.396C131.12 47.0227 131.017 46.7193 130.812 46.486C130.607 46.2527 130.35 46.0753 130.042 45.954C129.734 45.8327 129.319 45.702 128.796 45.562C128.152 45.394 127.634 45.226 127.242 45.058C126.859 44.89 126.528 44.6287 126.248 44.274C125.977 43.91 125.842 43.4247 125.842 42.818C125.842 42.286 125.977 41.8147 126.248 41.404C126.519 40.9933 126.897 40.676 127.382 40.452C127.877 40.228 128.441 40.116 129.076 40.116C129.991 40.116 130.737 40.3447 131.316 40.802C131.904 41.2593 132.235 41.866 132.31 42.622H130.91C130.863 42.2487 130.667 41.922 130.322 41.642C129.977 41.3527 129.519 41.208 128.95 41.208C128.418 41.208 127.984 41.348 127.648 41.628C127.312 41.8987 127.144 42.2813 127.144 42.776C127.144 43.1307 127.242 43.42 127.438 43.644C127.643 43.868 127.891 44.0407 128.18 44.162C128.479 44.274 128.894 44.4047 129.426 44.554C130.07 44.7313 130.588 44.9087 130.98 45.086C131.372 45.254 131.708 45.52 131.988 45.884C132.268 46.2387 132.408 46.724 132.408 47.34C132.408 47.816 132.282 48.264 132.03 48.684C131.778 49.104 131.405 49.4447 130.91 49.706C130.415 49.9673 129.832 50.098 129.16 50.098ZM139.337 40.242V50H138.063V40.242H139.337ZM152.68 43.07C152.41 42.5007 152.018 42.062 151.504 41.754C150.991 41.4367 150.394 41.278 149.712 41.278C149.031 41.278 148.415 41.4367 147.864 41.754C147.323 42.062 146.894 42.51 146.576 43.098C146.268 43.6767 146.114 44.3487 146.114 45.114C146.114 45.8793 146.268 46.5513 146.576 47.13C146.894 47.7087 147.323 48.1567 147.864 48.474C148.415 48.782 149.031 48.936 149.712 48.936C150.664 48.936 151.448 48.6513 152.064 48.082C152.68 47.5127 153.04 46.7427 153.142 45.772H149.25V44.736H154.5V45.716C154.426 46.5187 154.174 47.256 153.744 47.928C153.315 48.5907 152.75 49.118 152.05 49.51C151.35 49.8927 150.571 50.084 149.712 50.084C148.807 50.084 147.981 49.874 147.234 49.454C146.488 49.0247 145.895 48.432 145.456 47.676C145.027 46.92 144.812 46.066 144.812 45.114C144.812 44.162 145.027 43.308 145.456 42.552C145.895 41.7867 146.488 41.194 147.234 40.774C147.981 40.3447 148.807 40.13 149.712 40.13C150.748 40.13 151.663 40.3867 152.456 40.9C153.259 41.4133 153.842 42.1367 154.206 43.07H152.68ZM167.637 50H166.363L161.239 42.23V50H159.965V40.228H161.239L166.363 47.984V40.228H167.637V50ZM174.862 41.278V44.54H178.418V45.59H174.862V48.95H178.838V50H173.588V40.228H178.838V41.278H174.862ZM189.684 50L187.36 46.01H185.82V50H184.546V40.242H187.696C188.434 40.242 189.054 40.368 189.558 40.62C190.072 40.872 190.454 41.2127 190.706 41.642C190.958 42.0713 191.084 42.5613 191.084 43.112C191.084 43.784 190.888 44.3767 190.496 44.89C190.114 45.4033 189.535 45.744 188.76 45.912L191.21 50H189.684ZM185.82 44.988H187.696C188.387 44.988 188.905 44.82 189.25 44.484C189.596 44.1387 189.768 43.6813 189.768 43.112C189.768 42.5333 189.596 42.0853 189.25 41.768C188.914 41.4507 188.396 41.292 187.696 41.292H185.82V44.988Z" fill="#313639"/>
</svg>
